<svg id="Layer_3" enable-background="new 0 0 64 64" height="512" viewBox="0 0 64 64" width="512" xmlns="http://www.w3.org/2000/svg"><g><path d="m38 38h8v24h-8z" fill="#c18e59"/><g><path d="m31.207 54.207-1.414-1.414 11.5-11.5c.391-.391 1.023-.391 1.414 0l3.293 3.293 6.293-6.293 1.414 1.414-7 7c-.391.391-1.023.391-1.414 0l-3.293-3.293z" fill="#c66b60"/></g><path d="m40 33h4v5h-4z" fill="#8892a0"/><circle cx="42" cy="18" fill="#4d5d7a" r="16"/><circle cx="42" cy="18" fill="#c7e2fc" r="12"/><circle cx="55" cy="37" fill="#f5b953" r="3"/><circle cx="28" cy="55" fill="#f5b953" r="3"/><g><path d="m33 20h2v5h-2z" fill="#669e4f"/></g><g><path d="m37 18h2v7h-2z" fill="#c66b60"/></g><g><path d="m41 16h2v9h-2z" fill="#669e4f"/></g><g><path d="m45 14h2v11h-2z" fill="#c66b60"/></g><g><path d="m49 12h2v13h-2z" fill="#669e4f"/></g><g><path d="m55 41c-2.206 0-4-1.794-4-4s1.794-4 4-4 4 1.794 4 4-1.794 4-4 4zm0-6c-1.103 0-2 .897-2 2s.897 2 2 2 2-.897 2-2-.897-2-2-2z" fill="#f9d18b"/></g><g><path d="m28 59c-2.206 0-4-1.794-4-4s1.794-4 4-4 4 1.794 4 4-1.794 4-4 4zm0-6c-1.103 0-2 .897-2 2s.897 2 2 2 2-.897 2-2-.897-2-2-2z" fill="#f9d18b"/></g><path d="m7 62h6v-4h-4c-1.105 0-2 .895-2 2z" fill="#3d98f7"/><path d="m23 62h-6v-4h4c1.105 0 2 .895 2 2z" fill="#3d98f7"/><path d="m21 58h-4v-16h-4v16h-4v-20h12z" fill="#4d5d7a"/><path d="m20 22h-10c-2.209 0-4 1.791-4 4v6c0 1.105.895 2 2 2h1v4h12v-4h1c1.105 0 2-.895 2-2v-6c0-2.209-1.791-4-4-4z" fill="#3d98f7"/><path d="m24 27v5c0 1.105-.895 2-2 2h-2.183c-1.185 0-2.343-.351-3.328-1.008l-1.489-.992-6-2v-1h7l5 2v-4" fill="#efbe9a"/><path d="m6 27v5c0 1.105.895 2 2 2h5l3.64-.91-1.64-1.09-6-2v-3" fill="#db9b7c"/><path d="m15 20c-1.657 0-3-1.343-3-3v-2c0-1.657 1.343-3 3-3 1.657 0 3 1.343 3 3v2c0 1.657-1.343 3-3 3z" fill="#efbe9a"/><g><path d="m32 24h20v2h-20z" fill="#8892a0"/></g></g></svg>