<svg height="418pt" viewBox="0 -65 418.88003 418" width="418pt" xmlns="http://www.w3.org/2000/svg"><path d="m396.339844 4.070312c12.460937 0 22.558594 8.699219 22.539062 19.429688l-.027344 28.921875h-73.53125l-.03125-28.921875c-.007812-10.730469 10.089844-19.429688 22.550782-19.429688zm0 0" fill="#fedb41"/><path d="m418.851562 52.421875-.210937 183.777344h-73.101563l-.21875-183.777344zm0 0" fill="#00acea"/><path d="m418.640625 236.199219-36.550781 51.5625-36.550782-51.5625zm0 0" fill="#fedb41"/><path d="m314.179688 44.558594v226.839844h-288.480469c-14.160157 0-25.699219-12.109376-25.699219-26.9375v-2.351563c0-14.828125 11.539062-26.9375 25.699219-26.9375h39.109375v-171zm-49.558594 170.679687v-70.316406h-42.761719v-44.523437h-76.839844v44.523437h-42.757812v70.316406zm0 0" fill="#00efd1"/><path d="m145.019531 144.921875v-44.523437h76.839844v114.839843h-24.230469v-31.449219h-28.378906v31.449219h-24.230469zm0 0" fill="#fedb41"/><path d="m64.808594 44.171875v171h-39.109375c-14.160157 0-25.699219 12.109375-25.699219 26.9375v-214.730469c0-14.839844 11.539062-26.9375 25.699219-26.9375h39.109375zm0 0" fill="#00acea"/><g fill="#f4b844"><path d="m264.441406 145.101562h-43v70h43zm0 0"/><path d="m169.441406 184.101562h28v31h-28zm0 0"/><path d="m102.441406 145.101562h43v70h-43zm0 0"/><path d="m173.28125 138.101562h20.320312c4.417969 0 8-3.582031 8-8 0-4.417968-3.582031-8-8-8h-20.320312c-4.417969 0-8 3.582032-8 8 0 4.417969 3.582031 8 8 8zm0 0"/></g></svg>