<svg width="466" height="191" viewBox="0 0 466 191" fill="none" xmlns="http://www.w3.org/2000/svg">
<path d="M115.928 89.752V102.712C110.888 93.64 100.52 88.312 89.144 88.312C70.28 88.312 55.0164 102.856 55.0164 123.304C55.0164 143.752 70.424 158.44 89.144 158.44C100.376 158.44 110.888 153.112 115.928 144.04V147.496C115.928 173.416 105.128 181.768 88.712 181.768C80.648 181.768 72.296 177.736 67.4 169.816L59.624 174.136C66.248 185.08 77.336 190.552 88.712 190.552C110.6 190.552 125.144 179.608 125.144 147.064V89.752H115.928ZM89.864 149.656C75.752 149.656 64.232 138.136 64.232 123.16C64.232 108.328 75.752 97.096 89.864 97.096C103.256 97.096 115.928 107.32 115.928 123.592C115.928 139.144 103.832 149.656 89.864 149.656ZM178.602 88.312C168.09 88.312 160.89 94.792 157.578 106.168V89.752H148.218V157H157.578V131.656C157.578 115.096 162.474 97.24 178.458 97.24C180.906 97.24 184.074 97.672 187.53 99.112L189.258 90.328C186.666 89.032 182.346 88.312 178.602 88.312ZM255.007 89.752V102.712C249.967 93.64 239.599 88.312 228.223 88.312C209.359 88.312 194.095 102.856 194.095 123.304C194.095 143.752 209.503 158.44 228.223 158.44C239.455 158.44 249.967 153.112 255.007 143.896V157H264.223V89.752H255.007ZM228.943 149.656C214.831 149.656 203.311 138.136 203.311 123.16C203.311 108.328 214.831 97.096 228.943 97.096C242.335 97.096 255.007 107.32 255.007 123.592C255.007 139.144 242.911 149.656 228.943 149.656ZM343.6 51.88V102.712C338.56 93.64 328.192 88.312 316.816 88.312C297.952 88.312 282.688 102.856 282.688 123.304C282.688 143.752 298.096 158.44 316.816 158.44C328.048 158.44 338.56 153.112 343.6 143.896V157H352.816V51.88H343.6ZM317.536 149.656C303.424 149.656 291.904 138.136 291.904 123.16C291.904 108.328 303.424 97.096 317.536 97.096C330.928 97.096 343.6 107.32 343.6 123.592C343.6 139.144 331.504 149.656 317.536 149.656ZM375.89 157H385.106V51.88H375.89V157ZM455.757 89.752L432.573 144.76L409.677 89.752H399.741L427.533 156.136L413.709 189.688H423.501L465.693 89.752H455.757Z" fill="#1890FF"/>
<path d="M171.247 34.249L90.156 3.58459L8.6899 32.319L53.9071 51.833C48.8622 60.196 45.6858 69.417 45.6858 76.923C45.6858 76.923 65.492 67.916 89.782 68.131C114.072 68.345 133.691 77.995 133.691 77.995C133.691 70.275 130.888 61.269 125.843 52.691L171.247 34.249Z" stroke="#1890FF" stroke-width="6"/>
<path d="M26.7771 84.528C25.1463 84.528 23.7485 82.924 23.7485 81.053C23.7485 79.983 23.9815 79.181 24.6804 78.379L23.7485 45.802C23.7485 44.732 28.6408 46.748 28.6408 47.818V78.646C29.3397 79.181 29.5727 80.251 29.5727 81.053C29.8057 82.924 28.4079 84.528 26.7771 84.528Z" fill="#1890FF" stroke="#1890FF"/>
</svg>
